<?xml version="1.0" encoding="UTF-8"?>
<svg version="1.1" viewBox="0 0 2048 480" width="610" height="143" xmlns="http://www.w3.org/2000/svg">
<path transform="translate(0)" d="m0 0h2048v480h-2048z"/>
<path transform="translate(192,60)" d="m0 0h31l18 2 22 5 19 7 19 9 14 9 13 10 12 11 11 12 12 17 9 16 10 25 6 23 4 28v21l-4 28-6 22-8 20-10 19-12 17-12 13-11 11-15 11-24 14-15 6-27 8-11 2-15 1h-30l-16-1-21-5-21-7-19-9-19-12-14-11-12-12-9-11-12-18-9-17-8-21-5-19-3-17-1-10v-31l2-16 5-21 8-22 11-21 10-15 13-16 7-7 11-9 12-9 15-9 15-7 22-8 25-5z" fill="#F0F0F0"/>
<path transform="translate(1413,123)" d="m0 0h45l2 2 7 21 11 30 14 39 4 16 3-9 5-17 15-43 13-38 1-1h44l2 6 1 8-4 5-7 4v91l9 6 1 1v8l-2 9h-45l-1-2-1-15 9-6h2v-81l-16 49-12 36-6 17-2 2h-25l-3-5-21-60-12-35-1-6h-2l2 16 1 67 9 6 1 1-1 13-2 3h-38l-2-11v-5l10-7 1-93-7-2-4-4v-10z" fill="#F1F1F1"/>
<path transform="translate(867,123)" d="m0 0h59l16 4 10 5 11 9 8 10 7 15 3 16v23l-2 13-5 14-7 10-7 7-16 8-11 3-8 1h-58l-2-9v-8l5-4 5-3v-91l-10-6 1-16z" fill="#F1F1F1"/>
<path transform="translate(1595,123)" d="m0 0h65l13 2 13 5 8 7 4 8 2 9v8l-3 10-8 10-2 4 10 9 4 8 2 7 1 15-2 10-4 8-8 8-13 6-12 3-7 1h-63l-1-1-1-8v-9l10-6v-89l-4-4-6-4v-9l1-7z" fill="#F1F1F1"/>
<path transform="translate(633,123)" d="m0 0h64l17 3 10 4 9 8 4 8 2 9v13l-3 10-6 9-8 7-9 4-2 2 6 4 8 9 11 22 6 5 8 5-1 11-1 5h-33l-5-8-18-39-5-9-16-1v33l7 1 10 5 1 5-2 12-1 1h-52l-2-3-1-14 3-3 6-3h2l-1-92-9-6-1-1 1-11z" fill="#F1F1F1"/>
<path transform="translate(1083,122)" d="m0 0h27l4 9 29 85 7 20 8 5 4 3-2 17h-46l-2-4-1-13 3-3 6-4-5-14-1-1h-39l-4 15 9 6v10l-1 7-1 1h-45l-1-2-1-15 4-4 8-3 6-16 32-96z" fill="#F1F1F1"/>
<path transform="translate(1946,122)" d="m0 0h27l4 9 19 56 14 41 4 9 10 6v13l-2 5h-46l-2-12 1-7 7-4-1-7-4-9h-39l-4 15 9 6v10l-1 7-1 1h-45l-2-12v-5l5-4 6-3h2l3-10 15-46 14-41 6-17z" fill="#F1F1F1"/>
<path transform="translate(1326,122)" d="m0 0h27l3 5 12 36 15 43 10 29 3 3 7 4 2 6-2 13h-46l-2-6-1-10 5-5 4-2-3-11-2-5h-39l-5 15 9 6 1 5-2 12-1 1h-44l-2-5-1-11 5-5 8-4 14-41 24-72z" fill="#F1F1F1"/>
<path transform="translate(1715,123)" d="m0 0h47l1 16-7 6-3 3v64l2 14 3 6 5 4 5 2 7 1 9-2 8-6 3-9 1-16v-55l-1-5-8-6-1-1 1-16h44l1 1 1 14-4 5-6 4v35l5 2-3 1h-2l-1 36-3 15-6 11-5 5-6 5-13 4-6 1h-23l-13-3-10-6-6-8-5-12-2-12-1-75-9-6-1-1 1-15z" fill="#F1F1F1"/>
<path transform="translate(759,123)" d="m0 0h91v34l-1 1-15 1-5-10-1-4h-31v34l29-1 1-6 1-1h12l2 1v35l-3 1h-11l-3-6-2-1h-26v38l32-1 6-13 4-1 12 1 1 1v34l-1 1h-92l-2-12v-5l10-7v-91l-10-6 1-15z" fill="#F1F1F1"/>
<path transform="translate(1169,123)" d="m0 0h98l2 15-10 16-46 69-10 13-5 5 44-1 4-16 1-1 17 1 4 3 2 7 1 10v11l-2 6h-102l-2-6v-12l29-43 15-23 17-25 9-10-38 1-5 16-1 1-18-1-3-7-2-13v-14z" fill="#F1F1F1"/>
<path transform="translate(528,123)" d="m0 0h91l1 2v31l-2 2-14 1-7-14-31-1v37h29l2-7 1-1h12l2 5-1 32-13 1-4-7-28-1v33l9 2 8 4 3 5-2 13-1 1h-54l-2-6v-12l6-4 4-2v-92l-6-2-4-3v-12z" fill="#F1F1F1"/>
<path transform="translate(1843,123)" d="m0 0h47l2 15-5 5-5 3-1 117-2 18-5 10-7 6-8 3-11 2h-16l-13-4-10-6v-10l3-14 2-3h18l2 3 2 13 11-3 3-1 1-6v-125l-9-6v-10z" fill="#F1F1F1"/>
<path transform="translate(452,20)" d="m0 0h13v447h-13z" fill="#F1F1F1"/>
<path transform="translate(209,192)" d="m0 0h8l11 6 8 7 8 10 4 7 1 7-1 10-2-3-4-12-4-6 3 12-1 4-8-16-5-5 3 10-5-5-4-5-2-1-1 3-7-4h-2l13 11 10 12 7 12 4 13v11l-3 8-6 5-19 3-10 5-4 3h-4l2-4 8-6-4 2-7 6-5-1-10-7-9-11-6-12v-7l-1-11 2 4 4 13 7 12 8 10 2 1-9-11-3-6-1-7 12 15-4-10 1-2 10 12 1-3 10 5-5-5-9-7-9-11-8-15-3-10v-11l5-10 3-3 15-1h3l1-3 7-3z" fill="#030303"/>
<path transform="translate(905,144)" d="m0 0h13l12 3 8 5 6 7 5 12 2 11v27l-3 13-6 9-11 7-5 1h-21l-1-1v-93z"/>
<path transform="translate(1863,319)" d="m0 0h13l10 3 6 4 7 8 4 9v17l-4 10-7 8-10 5-4 1h-18l-9-3-9-8-6-12-1-5v-10l4-11 9-10 10-5z" fill="#F1F1F1"/>
<path transform="translate(1292,319)" d="m0 0h11l10 2 9 6 7 9 3 9v14l-5 12-9 9-7 3-5 1h-17l-11-4-9-9-5-12-1-9 3-12 6-9 8-6 7-3z" fill="#F1F1F1"/>
<path transform="translate(820,320)" d="m0 0h36l9 3 8 6 6 7 3 9v13l-3 9-7 9-10 6-16 2h-25l-1-1z" fill="#F1F1F1"/>
<path transform="translate(52,180)" d="m0 0h1l-1 8-4 25v38l3 21 8 28 8 20 10 19 13 19 11 13 14 14 16 12 18 11v1l-8-1-23-11-14-8-13-10-11-10-13-13-14-19-10-18-8-20-5-19-3-21v-11l11-6 1-1 3-25 6-25z"/>
<path transform="translate(706,320)" d="m0 0h39l7 3 5 5 3 6-1 9-3 5-3 3 8 6 2 4v9l-4 7-5 4-7 2-11 1h-27l-3-1z" fill="#F1F1F1"/>
<path transform="translate(272,81)" d="m0 0 11 3 15 8 19 12 14 12 10 9 11 13 10 15 9 16 9 23 4 16 3 17v16l-6 3-5 2-2 13-2 16-4 17-6 18-2 2 1-7 4-21 2-16v-26l-3-24-5-21-7-21-9-20-10-16-8-11-12-14-15-15-15-11-11-7z"/>
<path transform="translate(64,216)" d="m0 0h1l2 27 4 22 6 21 8 20 8 17 6 10 8 12 12 16 9 10 12 12 17 12 15 9 14 6 8 3v1l-13-1-16-5-17-7-17-10-12-9-9-7v-2l-3-1-7-8-8-9-13-19-10-18-8-20-4-16 8-7 1-3-3-20v-33z"/>
<path transform="translate(226,74)" d="m0 0 15 3 19 7 16 8 16 11 14 12 10 10 13 17 9 14 8 16 8 20 3 9v6l-7 6v8l2 15v41l-2 4-2-31-4-25-6-22-8-21-11-23-14-21-8-10-9-10-4-5-2-1v-2l-4-2-15-12-15-10-22-11z"/>
<path transform="translate(571,319)" d="m0 0 3 1 10 31 5 16 2-3 13-41 2-3h11l-1 5-12 37-7 20-2 2h-10l-3-3-14-42-4 10-12 34-5 1-10-1-3-12-13-40-3-11h12l3 8 12 38 2-3 13-37 2-6z" fill="#F1F1F1"/>
<path transform="translate(80,242)" d="m0 0 2 1 6 23 9 22 8 17 16 26 11 14 11 13 4 4v2l4 2 11 10 16 12 16 9 19 8 16 4 6 1v2h-14l-22-3-18-6-16-8-13-8-14-11-15-15v-2h-2l-13-17-7-11-8-14-2-4v-6l4-5-1-6-7-19-6-24z"/>
<path transform="translate(185,77)" d="m0 0h22l17 4 17 7 14 8 13 9 14 12 15 16 10 13 13 21 5 10-2 5-3 4 2 9 7 21 5 21 1 5v10h-1l-4-18-9-27-12-26-14-23-9-12-12-14-17-17-17-13-17-10-17-8-21-6z"/>
<path transform="translate(1526,320)" d="m0 0h11l14 24 10 17 4-5 13-23 8-13h10v63l-5 1h-5l-1-1-1-39-8 13-11 18-2 2-4-1-6-8-9-15-6-9-1 40h-10l-1-1z" fill="#F1F1F1"/>
<path transform="translate(1693,320)" d="m0 0h10l9 10 8 10 13 16 5 5v-41h12v63l-1 1h-7l-5-3-11-14-14-17-6-8-1 41-1 1h-10l-1-1z" fill="#F1F1F1"/>
<path transform="translate(101,268)" d="m0 0 3 4 7 14 13 21 12 17 14 15 5 5v2l4 2 11 11 14 11 14 9 19 10 18 6 17 3 13 1 1 2-14 3h-20l-20-4-19-8-17-10-11-8-11-9v-2l-4-2-3-3v-2l-3-1-7-8-10-12-3-5v-5l2-4-4-8-8-13-9-19-4-10z"/>
<path transform="translate(1112,320)" d="m0 0h9l5 5 11 13 8 10 9 11 2 2v-40l1-1h11v63l-1 1h-7l-7-6-11-14-14-17-4-5-1 42h-10l-1-1z" fill="#F1F1F1"/>
<path transform="translate(160,84)" d="m0 0h27l19 5 15 6 14 8 17 12 11 10 18 18 9 11 1 7-1 2v6l13 24 6 12 6 15-1 3-8-16-9-17-11-16-8-11-11-13-11-12-9-9-13-10-16-11-16-8-20-8-13-3-12-2-1-2z"/>
<path transform="translate(125,289)" d="m0 0 5 5 9 12 10 11 7 8 12 12 11 9 18 13 18 10 17 8 8 3 17 3 19 1 15-2-4 4-15 6-11 2-19-1-19-5-13-6-15-8-15-10-14-12-9-8-1-5v-6l-9-11-11-14-10-15z"/>
<path transform="translate(905,319)" d="m0 0 46 1v9l-1 1h-24l-10-1v17h30l1 1v9h-31v18h36l1 8-1 1-18 1h-25l-5-1v-63z" fill="#F1F1F1"/>
<path transform="translate(637,319)" d="m0 0 46 1v9l-2 1h-23l-10-1v17h30l1 1v9h-31v18h36v9l-48 1-1-3 1-61z" fill="#F1F1F1"/>
<path transform="translate(1042,319)" d="m0 0 46 1v9l-2 1h-32l-1 16h30l1 1v9h-31v18h36v9l-47 1-1-1v-63z" fill="#F1F1F1"/>
<path transform="translate(1623,320)" d="m0 0h47l-1 9-1 1h-33l-1 16h31l1 3-1 7-30 1-1 17h36l1 1v8l-48 1z" fill="#F1F1F1"/>
<path transform="translate(150,95)" d="m0 0h21l17 4 19 7 16 9 18 13 15 13 3 4v9l7 9 10 12 14 21 4 7-1 2-8-11-9-12-12-14-15-16-22-18-18-12-16-8-12-5-21-5-6-1h-26l4-3 12-4z"/>
<path transform="translate(1865,330)" d="m0 0h10l8 3 7 8 2 7v7l-3 9-6 7-6 3h-14l-8-4-6-7-2-6v-10l4-9 7-6z"/>
<path transform="translate(1293,330)" d="m0 0h11l7 3 5 4 4 8v13l-4 8-8 7-3 1h-14l-6-3-7-8-2-4v-13l5-10 5-4z"/>
<path transform="translate(990,319)" d="m0 0h10l12 2 5 3-2 9-7-1-8-2h-9l-6 3-2 3 1 5 4 3 18 5 8 4 5 5 1 3v10l-6 8-4 3-7 2h-16l-13-3-4-2 1-7 2-3 4 1 11 4h11l7-3 2-3-1-7-16-4-13-5-5-4-2-4v-11l5-8 6-4z" fill="#F1F1F1"/>
<path transform="translate(145,300)" d="m0 0 4 2 17 16 13 11 15 11 20 12 15 7 22 7 10 2 16 1 14-2 14-5 5-2-2 4-10 8-14 7-15 2-21-2-15-4-20-9-17-10-9-6-3-11-10-9-8-7-15-15z"/>
<path transform="translate(141,107)" d="m0 0h14l18 3 25 9 15 8 14 9 2 3 2 9 14 12 8 7 9 9 8 10-1 2-13-13-8-7-12-10-19-13-20-12-20-8-13-4-13-2h-20l-14 3-8 2 6-7 14-7z"/>
<path transform="translate(832,330)" d="m0 0h20l9 3 7 7 2 5v13l-4 8-8 6-8 2h-19v-38z"/>
<path transform="translate(1405,320)" d="m0 0h13l12 28 8 19 3-4 13-30 6-13h12l-8 20-18 40-4 4-14-1 1-6-13-30-11-25z" fill="#F1F1F1"/>
<path transform="translate(1186,319)" d="m0 0h11l3 3 7 17 11 26 3 3 1-5 11-26 7-16 1-1 10-1 2 2-15 34-11 25-3 4h-9l-4-4-13-30-12-28z" fill="#F1F1F1"/>
<path transform="translate(1633,200)" d="m0 0h16l12 1 7 4 4 5 2 8-1 9-4 6-6 4-9 2h-22v-38z"/>
<path transform="translate(176,317)" d="m0 0 5 2 22 13 16 8 22 8 12 3 16 2h17l15-4 10-5 6-6 2 1-6 11-9 8-10 5-12 3h-21l-15-3-18-6-12-6-4-5-2-5-18-11-16-12z"/>
<path transform="translate(133,122)" d="m0 0h22l16 3 17 6 12 6 5 8 3 3 13 8 17 12 7 6h-3l-13-8-17-10-16-8-20-8-16-4-9-1h-24l-12 3-10 5-5 4-2-1 6-9 7-7 12-6z"/>
<path transform="translate(671,144)" d="m0 0h16l14 3 5 4 3 7v10l-4 8-5 4-5 2h-24z"/>
<path transform="translate(1768,320)" d="m0 0h54l1 8-3 2h-19v53l-1 1h-9l-2-2v-50l1-2h-21l-1-1z" fill="#F1F1F1"/>
<path transform="translate(1632,144)" d="m0 0h17l12 2 7 6 2 10-3 9-7 6-7 2h-20l-1-1z"/>
<path transform="translate(321,313)" d="m0 0 1 3-4 13-6 8-7 6-10 5-7 2-14 1-17-1-16-3-5-3-6-7-29-14-7-4 2-1 26 11 12 4 19 4 8 1h18l12-2 12-5 8-6 8-9z"/>
<path transform="translate(1354,320)" d="m0 0h12v54h33l1 3v5l-1 1h-45z" fill="#F1F1F1"/>
<path transform="translate(131,137)" d="m0 0h23l22 4 4 2 4 7 18 8 12 6 1 2-9-3-19-7-15-4-17-3h-14l-19 3-12 5-9 7-5 7h-1l1-8 5-10 9-8 12-6z"/>
<path transform="translate(317,289)" d="m0 0 2 2v13l-4 11-6 8-10 7-14 5-6 1h-22l-5-2-5-5-21-5-5-2v-1l9 1 15 2 18 1 17-2 12-4 11-6 7-7 5-9z"/>
<path transform="translate(147,150)" d="m0 0 12 1 5 4 3 3 26 7 5 2-4 1-21-4-9-1h-21l-19 4-8 4-10 9-4 5-5 9h-1l1-13 4-10 9-10 10-6 11-3z"/>
<path transform="translate(144,164)" d="m0 0 6 1 2 2 4 1 20 2 8 2v1h-20l-21 3-15 5-11 8-8 11-4 10-2 7-2-3v-16l4-11 6-8 7-6 10-5z"/>
<path transform="translate(309,265)" d="m0 0 2 3 3 10v11l-3 10-7 10-11 8-11 4-13 2-7-4-16-1-6-1v-1l21-2 15-4 14-6 8-6 7-9 3-8 1-9z"/>
<path transform="translate(1488,320)" d="m0 0h12v63l-1 1h-10l-1-1z" fill="#F1F1F1"/>
<path transform="translate(1957,149)" d="m0 0h2l5 25 8 27v2h-28l4-16 6-23z"/>
<path transform="translate(1337,148)" d="m0 0 2 1 6 27 7 24v3h-28l3-11 4-13 4-19z"/>
<path transform="translate(1094,149)" d="m0 0h2l5 25 8 27v2h-28l4-16 5-18z"/>
<path transform="translate(299,246)" d="m0 0 3 4 3 7 1 5v17l-4 10-7 9-9 6-9 4-4-1-7-1-10 2h-10l1-2 16-4 13-6 10-6 7-8 5-10 2-9v-9z"/>
<path transform="translate(172,178)" d="m0 0 7 1v1l-16 2-20 6-14 8-7 8-6 12-1 5-1 15-2-1-4-15v-9l4-11 6-9h2l1-3 11-7 5-2h6l-1 4 3-2z"/>
<path transform="translate(718,355)" d="m0 0h12l14 1 6 3 2 5-1 5-5 4-3 1h-25z"/>
<path transform="translate(162,188)" d="m0 0 3 1-16 8-8 6-4 4h-2l-8 16-2 10 1 14 3 10-4-4-5-10-3-12 1-13 4-10 6-8h2l1-3 5-3h9z"/>
<path transform="translate(286,231)" d="m0 0 5 5 5 12 2 10-1 10-3 9-6 9-6 6h-12l-12 5-4-1 14-7 12-11 6-10 3-9v-16z"/>
<path transform="translate(271,216)" d="m0 0 7 6 6 10 4 16-1 13-4 10-4 6-3 1-5 1-10 8-5 3-2-1 10-8 6-8 6-12 2-9v-16l-4-13-3-5z"/>
<path transform="translate(157,198)" d="m0 0 2 1-12 12-7 11-4 12v16l4 12 4 8-1 2-9-12-5-11-2-6v-13l3-10 6-10 4-2 4 2 1-3z"/>
<path transform="translate(719,328)" d="m0 0 21 1 6 3 2 3v6l-4 5h-26v-17z"/>
<path transform="translate(255,204)" d="m0 0 7 6 7 8 6 10 2 9v19l-2 6-6 2-9 14-2 1 2-6 6-12 3-13-1-16-4-12-8-13z"/>
<path transform="translate(156,208)" d="m0 0v3l-7 14-3 13v15l4 13 6 11-1 2-8-9-6-10-4-12v-14l3-9 7-4 6-10z"/>
<path transform="translate(156,221)" d="m0 0 1 4-2 5v19l2 12 4 9 3 6 6 7v2l3 1 1 3-5-2-10-9-8-14-4-11v-13l6-12z"/>
<path transform="translate(238,196)" d="m0 0 5 2 9 7 8 10 5 10 4 20-3 5-4 6-2 7h-1l1-9v-21l-6-16-7-11-9-9z"/>
<path transform="translate(224,193)" d="m0 0 8 2 11 8 9 12 5 11 2 5v8l-6 1-4-16-6-12-10-12-9-6z"/>
<path transform="translate(158,232)" d="m0 0h1l3 19 6 18 9 13 10 9-3 1-8-5-9-9-8-14-3-10 1-6z"/>
<path transform="translate(202,192)" d="m0 0h5l-4 4-8 5-13 1 4-4 11-5z"/>
<path transform="translate(223,285)" d="m0 0h9l-3 3-16 6-5-1 1-3z"/>
<path transform="translate(212,198)" d="m0 0 2 1-9 9-6-2-1-2h7z" fill="#F1F1F1"/>
<path transform="translate(225,283)" d="m0 0m-3 1 3 1-14 5-2-1 3-3z" fill="#F1F1F1"/>
</svg>
